<svg width="45" height="45" viewBox="0 0 45 45" fill="none" xmlns="http://www.w3.org/2000/svg">
<path d="M16.9125 5.32482L6.80625 13.1998C5.11875 14.5123 3.75 17.3061 3.75 19.4248V33.3186C3.75 37.6686 7.29375 41.2311 11.6438 41.2311H33.3563C37.7063 41.2311 41.25 37.6686 41.25 33.3373V19.6873C41.25 17.4186 39.7313 14.5123 37.875 13.2186L26.2875 5.09982C23.6625 3.26232 19.4438 3.35607 16.9125 5.32482Z" stroke="#03373A" stroke-width="2.8125" stroke-linecap="round" stroke-linejoin="round"/>
<path d="M22.5 16.875V33.75M14.0625 25.3125H30.9375M19.6875 33.75H25.3125C28.4062 33.75 30.9375 31.2187 30.9375 28.125V22.5C30.9375 19.4063 28.4062 16.875 25.3125 16.875H19.6875C16.5938 16.875 14.0625 19.4063 14.0625 22.5V28.125C14.0625 31.2187 16.5938 33.75 19.6875 33.75Z" stroke="#03373A" stroke-width="2.8125" stroke-linecap="round" stroke-linejoin="round"/>
</svg>
