<svg width="45" height="45" viewBox="0 0 45 45" fill="none" xmlns="http://www.w3.org/2000/svg">
<path d="M36.1874 14.8501V24.5063C36.1874 30.2813 32.8874 32.7563 27.9374 32.7563H11.4562C10.6124 32.7563 9.80618 32.6813 9.05618 32.5126C8.58743 32.4376 8.13743 32.3063 7.72493 32.1563C4.91243 31.1063 3.20618 28.6688 3.20618 24.5063V14.8501C3.20618 9.0751 6.50618 6.6001 11.4562 6.6001H27.9374C32.1374 6.6001 35.1562 8.38135 35.9624 12.4501C36.0937 13.2001 36.1874 13.9688 36.1874 14.8501Z" stroke="#03373A" stroke-width="2.8125" stroke-miterlimit="10" stroke-linecap="round" stroke-linejoin="round"/>
<path d="M41.8147 20.4747V30.131C41.8147 35.906 38.5147 38.381 33.5647 38.381H17.0835C15.696 38.381 14.4397 38.1935 13.3522 37.781C11.121 36.956 9.60222 35.2497 9.05847 32.5122C9.80847 32.681 10.6147 32.756 11.4585 32.756H27.9397C32.8897 32.756 36.1897 30.281 36.1897 24.506V14.8497C36.1897 13.9685 36.1147 13.181 35.9647 12.4497C39.5272 13.1997 41.8147 15.7122 41.8147 20.4747V20.4747Z" stroke="#03373A" stroke-width="2.8125" stroke-miterlimit="10" stroke-linecap="round" stroke-linejoin="round"/>
<path d="M8.96252 15.5628V23.8128M30.4163 15.5628V23.8128M19.6838 24.6378C20.9966 24.6378 22.2556 24.1163 23.184 23.188C24.1123 22.2597 24.6338 21.0006 24.6338 19.6878C24.6338 18.375 24.1123 17.1159 23.184 16.1876C22.2556 15.2593 20.9966 14.7378 19.6838 14.7378C18.371 14.7378 17.1119 15.2593 16.1836 16.1876C15.2553 17.1159 14.7338 18.375 14.7338 19.6878C14.7338 21.0006 15.2553 22.2597 16.1836 23.188C17.1119 24.1163 18.371 24.6378 19.6838 24.6378V24.6378Z" stroke="#03373A" stroke-width="2.8125" stroke-miterlimit="10" stroke-linecap="round" stroke-linejoin="round"/>
</svg>
