<svg width="45" height="45" viewBox="0 0 45 45" fill="none" xmlns="http://www.w3.org/2000/svg">
<path d="M39.2062 20.8503C39.2062 30.0191 32.5499 38.6066 23.4562 41.1191C22.8375 41.2878 22.1624 41.2878 21.5437 41.1191C12.45 38.6066 5.7937 30.0191 5.7937 20.8503V12.6191C5.7937 11.0816 6.9562 9.33784 8.39995 8.75659L18.8437 4.48159C21.1875 3.52534 23.8312 3.52534 26.1749 4.48159L36.6187 8.75659C38.0437 9.33784 39.2249 11.0816 39.2249 12.6191L39.2062 20.8503V20.8503Z" stroke="#03373A" stroke-width="2.8125" stroke-linecap="round" stroke-linejoin="round"/>
<path d="M22.5002 23.4377V29.0627M22.5002 23.4377C23.4948 23.4377 24.4486 23.0427 25.1519 22.3394C25.8552 21.6361 26.2502 20.6823 26.2502 19.6877C26.2502 18.6932 25.8552 17.7394 25.1519 17.0361C24.4486 16.3328 23.4948 15.9377 22.5002 15.9377C21.5057 15.9377 20.5519 16.3328 19.8486 17.0361C19.1453 17.7394 18.7502 18.6932 18.7502 19.6877C18.7502 20.6823 19.1453 21.6361 19.8486 22.3394C20.5519 23.0427 21.5057 23.4377 22.5002 23.4377Z" stroke="#03373A" stroke-width="2.8125" stroke-miterlimit="10" stroke-linecap="round" stroke-linejoin="round"/>
</svg>
